<svg width="20" height="20" viewBox="0 0 20 20" fill="none" xmlns="http://www.w3.org/2000/svg">
    <path d="M15.6001 2H10.8C10.5878 2 10.3844 2.08429 10.2343 2.23432C10.0843 2.38435 10 2.58784 10 2.80002C10 3.01219 10.0843 3.21568 10.2343 3.36571C10.3844 3.51575 10.5878 3.60003 10.8 3.60003H15.6001C15.8123 3.60003 16.0158 3.68432 16.1658 3.83435C16.3158 3.98438 16.4001 4.18787 16.4001 4.40005V15.6003C16.4001 15.8125 16.3158 16.0159 16.1658 16.166C16.0158 16.316 15.8123 16.4003 15.6001 16.4003H10.8C10.5878 16.4003 10.3844 16.4846 10.2343 16.6346C10.0843 16.7846 10 16.9881 10 17.2003C10 17.4125 10.0843 17.616 10.2343 17.766C10.3844 17.916 10.5878 18.0003 10.8 18.0003H15.6001C16.2366 18.0003 16.8471 17.7475 17.2972 17.2974C17.7473 16.8473 18.0002 16.2368 18.0002 15.6003V4.40005C18.0002 3.76352 17.7473 3.15305 17.2972 2.70296C16.8471 2.25286 16.2366 2 15.6001 2Z"
          fill="#B9BBC1" stroke="#B9BBC1" stroke-width="0.1"/>
    <path d="M6.56552 12.6346C6.64193 12.7084 6.70288 12.7967 6.74481 12.8943C6.78673 12.9919 6.8088 13.0969 6.80973 13.2031C6.81065 13.3093 6.79041 13.4147 6.75018 13.513C6.70996 13.6113 6.65055 13.7006 6.57544 13.7757C6.50032 13.8509 6.411 13.9103 6.31268 13.9505C6.21436 13.9907 6.10901 14.011 6.00279 14.01C5.89656 14.0091 5.79159 13.987 5.69398 13.9451C5.59638 13.9032 5.5081 13.8422 5.4343 13.7658L2.23423 10.5658C2.08425 10.4157 2 10.2123 2 10.0001C2 9.78801 2.08425 9.58456 2.23423 9.43453L5.4343 6.23447C5.5081 6.15806 5.59638 6.09711 5.69398 6.05519C5.79159 6.01326 5.89656 5.99119 6.00279 5.99026C6.10901 5.98934 6.21436 6.00958 6.31268 6.04981C6.411 6.09003 6.50032 6.14944 6.57544 6.22455C6.65055 6.29967 6.70996 6.38899 6.75018 6.48731C6.79041 6.58563 6.81065 6.69098 6.80973 6.7972C6.8088 6.90343 6.78673 7.00841 6.74481 7.10601C6.70288 7.20362 6.64193 7.29189 6.56552 7.36569L4.73108 9.20013H14.0001C14.2122 9.20013 14.4157 9.28442 14.5658 9.43445C14.7158 9.58448 14.8001 9.78797 14.8001 10.0001C14.8001 10.2123 14.7158 10.4158 14.5658 10.5658C14.4157 10.7159 14.2122 10.8002 14.0001 10.8002H4.73108L6.56552 12.6346Z"
          fill="#B9BBC1" stroke="#B9BBC1" stroke-width="0.1"/>
</svg>
