<svg width="240" height="240" viewBox="0 0 240 240" fill="none" xmlns="http://www.w3.org/2000/svg">
<path d="M0 61.44C0 39.934 0 29.181 4.18535 20.9668C7.86689 13.7413 13.7413 7.86689 20.9668 4.18535C29.181 0 39.934 0 61.44 0H178.56C200.066 0 210.819 0 219.033 4.18535C226.259 7.86689 232.133 13.7413 235.815 20.9668C240 29.181 240 39.934 240 61.44V178.56C240 200.066 240 210.819 235.815 219.033C232.133 226.259 226.259 232.133 219.033 235.815C210.819 240 200.066 240 178.56 240H61.44C39.934 240 29.181 240 20.9668 235.815C13.7413 232.133 7.86689 226.259 4.18535 219.033C0 210.819 0 200.066 0 178.56V61.44Z" fill="white"/>
<path d="M144.126 106.306C144.126 111.245 140.122 115.249 135.183 115.249C130.244 115.249 126.239 111.245 126.239 106.306V48.9442C126.239 44.005 130.244 40.0012 135.183 40.0012C140.122 40.0012 144.126 44.005 144.126 48.9442V106.306Z" fill="#FFAA2A"/>
<path d="M154.92 77.625C154.92 72.6859 158.925 68.6809 163.863 68.6809C168.802 68.6809 172.807 72.6859 172.807 77.625V97.3618H192.545C197.483 97.3618 201.488 101.367 201.488 106.306C201.488 111.245 197.483 115.249 192.545 115.249H163.863C158.924 115.249 154.92 111.245 154.92 106.306L154.92 77.625Z" fill="#FFAA2A"/>
<path fill-rule="evenodd" clip-rule="evenodd" d="M198.501 71.6695C202.323 75.4929 202.323 81.6913 198.501 85.5136C194.677 89.337 188.479 89.337 184.655 85.5136C180.833 81.6915 180.833 75.493 184.655 71.6695C188.479 67.8462 194.677 67.8462 198.501 71.6695Z" fill="#00C3FF"/>
<path d="M135.183 144.127C130.244 144.127 126.239 140.121 126.239 135.183C126.239 130.244 130.244 126.239 135.183 126.239H192.545C197.483 126.239 201.488 130.244 201.488 135.183C201.488 140.121 197.483 144.127 192.545 144.127H135.183Z" fill="#8F47FF"/>
<path d="M163.863 154.92C168.802 154.92 172.807 158.925 172.807 163.864C172.807 168.803 168.802 172.807 163.863 172.807H144.126V192.544C144.126 197.483 140.122 201.488 135.183 201.488C130.244 201.488 126.239 197.483 126.239 192.544V163.863C126.239 158.925 130.244 154.919 135.183 154.919L163.863 154.92Z" fill="#8F47FF"/>
<path fill-rule="evenodd" clip-rule="evenodd" d="M169.818 198.499C165.996 202.323 159.798 202.323 155.975 198.499C152.152 194.677 152.152 188.479 155.975 184.656C159.798 180.833 165.996 180.833 169.818 184.656C173.642 188.479 173.642 194.677 169.818 198.499Z" fill="#AAD23F"/>
<path d="M97.3619 135.184C97.3619 130.245 101.366 126.239 106.305 126.239C111.244 126.239 115.249 130.245 115.249 135.184V192.545C115.249 197.483 111.244 201.489 106.305 201.489C101.366 201.489 97.3619 197.483 97.3619 192.545V135.184Z" fill="#00C3FF"/>
<path d="M86.5678 163.864C86.5678 168.803 82.563 172.808 77.6251 172.808C72.686 172.808 68.6798 168.803 68.6798 163.864L68.6811 144.127H48.943C44.0053 144.127 40 140.122 40 135.184C40 130.245 44.0051 126.239 48.943 126.239H77.6251C82.5642 126.239 86.5678 130.245 86.5678 135.184V163.864Z" fill="#00C3FF"/>
<path fill-rule="evenodd" clip-rule="evenodd" d="M42.9874 169.82C39.1651 165.996 39.1651 159.799 42.9874 155.976C46.8108 152.152 53.0081 152.152 56.8326 155.976C60.6548 159.799 60.6548 165.996 56.8326 169.82C53.0081 173.642 46.8108 173.642 42.9874 169.82Z" fill="#FFAA2A"/>
<path d="M106.304 97.3605C111.244 97.3605 115.249 101.367 115.249 106.305C115.249 111.244 111.244 115.249 106.304 115.249H48.9428C44.0051 115.249 39.9998 111.244 39.9998 106.305C39.9998 101.367 44.0049 97.3605 48.9428 97.3605H106.304Z" fill="#AAD23F"/>
<path d="M77.625 86.568C72.6859 86.568 68.6797 82.5629 68.6797 77.6238C68.6797 72.6859 72.6859 68.6809 77.625 68.6809H97.3618V48.9441C97.3618 44.005 101.366 40 106.305 40C111.244 40 115.249 44.005 115.249 48.9441V77.625C115.249 82.5628 111.244 86.5692 106.305 86.5692L77.625 86.568Z" fill="#AAD23F"/>
<path fill-rule="evenodd" clip-rule="evenodd" d="M71.6695 42.9887C75.4916 39.1652 81.6902 39.1652 85.5124 42.9887C89.3359 46.8109 89.3359 53.0093 85.5124 56.8315C81.6902 60.655 75.4916 60.655 71.6695 56.8315C67.8461 53.0093 67.8461 46.8109 71.6695 42.9887Z" fill="#8F47FF"/>
</svg>
