<svg width="18" height="18" viewBox="0 0 18 18" fill="none" xmlns="http://www.w3.org/2000/svg">
<path d="M15.1669 14C15.4864 13.3749 15.6667 12.6669 15.6667 11.9167C15.6667 9.38536 13.6146 7.33333 11.0833 7.33333C8.55203 7.33333 6.5 9.38536 6.5 11.9167C6.5 14.448 8.55203 16.5 11.0833 16.5L16.5 16.5C16.5 16.5 15.6667 15.6667 15.1786 14.0243M14.7083 9C14.7903 8.59611 14.8333 8.17808 14.8333 7.75C14.8333 4.29822 12.0351 1.5 8.58333 1.5C5.13155 1.5 2.33333 4.29822 2.33333 7.75C2.33333 8.48049 2.45865 9.18171 2.68897 9.83333C3.58415 12.3431 1.5 14 1.5 14H6.91667" stroke="#B9BBC1" stroke-width="1.8" stroke-linecap="round" stroke-linejoin="round"/>
</svg>
