<svg width="18" height="18" viewBox="0 0 18 18" fill="none" xmlns="http://www.w3.org/2000/svg">
<path d="M8.16667 14C8.16667 14.7766 8.16667 15.1649 8.29353 15.4711C8.46269 15.8795 8.78715 16.204 9.19553 16.3731C9.50181 16.5 9.8901 16.5 10.6667 16.5H14C14.7766 16.5 15.1649 16.5 15.4711 16.3731C15.8795 16.204 16.204 15.8795 16.3731 15.4711C16.5 15.1649 16.5 14.7766 16.5 14C16.5 13.2234 16.5 12.8351 16.3731 12.5289C16.204 12.1205 15.8795 11.796 15.4711 11.6269C15.1649 11.5 14.7766 11.5 14 11.5H10.6667C9.8901 11.5 9.50181 11.5 9.19553 11.6269C8.78715 11.796 8.46269 12.1205 8.29353 12.5289C8.16667 12.8351 8.16667 13.2234 8.16667 14ZM8.16667 14H6.66667C5.73325 14 5.26654 14 4.91002 13.8183C4.59641 13.6586 4.34144 13.4036 4.18166 13.09C4 12.7335 4 12.2668 4 11.3333V6.5M4 6.5H14C14.7766 6.5 15.1649 6.5 15.4711 6.37313C15.8795 6.20398 16.204 5.87952 16.3731 5.47114C16.5 5.16485 16.5 4.77657 16.5 4C16.5 3.22343 16.5 2.83515 16.3731 2.52886C16.204 2.12048 15.8795 1.79602 15.4711 1.62687C15.1649 1.5 14.7766 1.5 14 1.5H4C3.22343 1.5 2.83515 1.5 2.52886 1.62687C2.12048 1.79602 1.79602 2.12048 1.62687 2.52886C1.5 2.83515 1.5 3.22343 1.5 4C1.5 4.77657 1.5 5.16485 1.62687 5.47114C1.79602 5.87952 2.12048 6.20398 2.52886 6.37313C2.83515 6.5 3.22343 6.5 4 6.5Z" stroke="#B9BBC1" stroke-width="1.8" stroke-linecap="round" stroke-linejoin="round"/>
</svg>
